# xmcd
#
# Track frame offsets:
#	150
#	17386
#	38037
#	55925
#	79888
#	99700
#	117985
#	136358
#	153895
#	171805
#	188784
#
# Disc length: 2888 seconds
#
# Revision: 0
# Processed by: cddbd v1.4PL0 Copyright (c) Steve Scherf et al.
# Submitted via: audiograbber 1.82.01
#
DISCID=850b460b
DTITLE=Hasna  - Hasna
DYEAR=1900
DGENRE=
TTITLE0=Ana Kulli Lik
TTITLE1=Marsoul El Hob
TTITLE2=Yikhallik Liya
TTITLE3=W Eltakayna
TTITLE4=Ya Habib El Aleb
TTITLE5=Cazablanca
TTITLE6=El Hayat Helwa 
TTITLE7=Ghazelni
TTITLE8=Enta El Habib
TTITLE9=Hikmat Jibran
TTITLE10=El Hayat Helwa (RMX)
EXTD=
EXTT0=
EXTT1=
EXTT2=
EXTT3=
EXTT4=
EXTT5=
EXTT6=
EXTT7=
EXTT8=
EXTT9=
EXTT10=
PLAYORDER=
